<svg width="20" height="20" viewBox="0 0 20 20" fill="none" xmlns="http://www.w3.org/2000/svg">
<rect width="20" height="20" fill="#1E1E1E"/>
<g id="Chat screen - Inside">
<rect x="-287" y="-664" width="375" height="812" rx="32" fill="#FAF9F4"/>
<g id="Frame 79">
<g id="Descriptions" filter="url(#filter0_d_0_1)">
<path d="M-239 -70H36C42.6274 -70 48 -64.6274 48 -58V-12C48 -5.37258 42.6274 0 36 0H-227C-233.627 0 -239 -5.37258 -239 -12V-70Z" fill="white" shape-rendering="crispEdges"/>
</g>
</g>
<g id="Attachments/Click" filter="url(#filter1_d_0_1)">
<rect x="-52" y="-12" width="124" height="44" rx="22" fill="#008000" shape-rendering="crispEdges"/>
<g id="icon/video">
<g id="Icon">
<path d="M18 6.42857L12.9091 10L18 13.5714V6.42857Z" stroke="white" stroke-width="1.5" stroke-linecap="round" stroke-linejoin="round"/>
<path d="M11.4545 5H3.45455C2.65122 5 2 5.63959 2 6.42857V13.5714C2 14.3604 2.65122 15 3.45455 15H11.4545C12.2579 15 12.9091 14.3604 12.9091 13.5714V6.42857C12.9091 5.63959 12.2579 5 11.4545 5Z" stroke="white" stroke-width="1.5" stroke-linecap="round" stroke-linejoin="round"/>
</g>
</g>
</g>
</g>
<defs>
<filter id="filter0_d_0_1" x="-247" y="-74" width="303" height="86" filterUnits="userSpaceOnUse" color-interpolation-filters="sRGB">
<feFlood flood-opacity="0" result="BackgroundImageFix"/>
<feColorMatrix in="SourceAlpha" type="matrix" values="0 0 0 0 0 0 0 0 0 0 0 0 0 0 0 0 0 0 127 0" result="hardAlpha"/>
<feOffset dy="4"/>
<feGaussianBlur stdDeviation="4"/>
<feComposite in2="hardAlpha" operator="out"/>
<feColorMatrix type="matrix" values="0 0 0 0 0 0 0 0 0 0 0 0 0 0 0 0 0 0 0.08 0"/>
<feBlend mode="normal" in2="BackgroundImageFix" result="effect1_dropShadow_0_1"/>
<feBlend mode="normal" in="SourceGraphic" in2="effect1_dropShadow_0_1" result="shape"/>
</filter>
<filter id="filter1_d_0_1" x="-60" y="-21" width="140" height="66" filterUnits="userSpaceOnUse" color-interpolation-filters="sRGB">
<feFlood flood-opacity="0" result="BackgroundImageFix"/>
<feColorMatrix in="SourceAlpha" type="matrix" values="0 0 0 0 0 0 0 0 0 0 0 0 0 0 0 0 0 0 127 0" result="hardAlpha"/>
<feOffset dy="-1"/>
<feGaussianBlur stdDeviation="4"/>
<feComposite in2="hardAlpha" operator="out"/>
<feColorMatrix type="matrix" values="0 0 0 0 0 0 0 0 0 0 0 0 0 0 0 0 0 0 0.05 0"/>
<feBlend mode="normal" in2="BackgroundImageFix" result="effect1_dropShadow_0_1"/>
<feBlend mode="normal" in="SourceGraphic" in2="effect1_dropShadow_0_1" result="shape"/>
</filter>
</defs>
</svg>
